%TF.GenerationSoftware,KiCad,Pcbnew,5.1.9-1*%
%TF.CreationDate,2021-07-13T14:20:52+02:00*%
%TF.ProjectId,led-pekac,6c65642d-7065-46b6-9163-2e6b69636164,rev?*%
%TF.SameCoordinates,Original*%
%TF.FileFunction,Legend,Bot*%
%TF.FilePolarity,Positive*%
%FSLAX46Y46*%
G04 Gerber Fmt 4.6, Leading zero omitted, Abs format (unit mm)*
G04 Created by KiCad (PCBNEW 5.1.9-1) date 2021-07-13 14:20:52*
%MOMM*%
%LPD*%
G01*
G04 APERTURE LIST*
%ADD10C,0.200000*%
%ADD11C,0.120000*%
%ADD12C,0.150000*%
G04 APERTURE END LIST*
D10*
%TO.C,J7*%
X209690000Y-83830000D02*
G75*
G03*
X209690000Y-83830000I-100000J0D01*
G01*
X209550000Y-85090000D02*
X260350000Y-85090000D01*
X209550000Y-90170000D02*
X209550000Y-85090000D01*
X260350000Y-90170000D02*
X209550000Y-90170000D01*
X260350000Y-85090000D02*
X260350000Y-90170000D01*
D11*
%TO.C,R10*%
X205292936Y-68305000D02*
X206747064Y-68305000D01*
X205292936Y-70125000D02*
X206747064Y-70125000D01*
%TO.C,U7*%
X216535000Y-74275000D02*
X219985000Y-74275000D01*
X216535000Y-74275000D02*
X214585000Y-74275000D01*
X216535000Y-79395000D02*
X218485000Y-79395000D01*
X216535000Y-79395000D02*
X214585000Y-79395000D01*
%TO.C,R9*%
X205367936Y-71480000D02*
X206822064Y-71480000D01*
X205367936Y-73300000D02*
X206822064Y-73300000D01*
%TO.C,J1*%
X220345000Y-73025000D02*
X220345000Y-71755000D01*
X219075000Y-73025000D02*
X220345000Y-73025000D01*
X211075000Y-70712071D02*
X211075000Y-70315000D01*
X211835000Y-70712071D02*
X211835000Y-70315000D01*
X211075000Y-61655000D02*
X211075000Y-67655000D01*
X211835000Y-61655000D02*
X211075000Y-61655000D01*
X211835000Y-67655000D02*
X211835000Y-61655000D01*
X212725000Y-70315000D02*
X212725000Y-67655000D01*
X213615000Y-70712071D02*
X213615000Y-70315000D01*
X214375000Y-70712071D02*
X214375000Y-70315000D01*
X213615000Y-61655000D02*
X213615000Y-67655000D01*
X214375000Y-61655000D02*
X213615000Y-61655000D01*
X214375000Y-67655000D02*
X214375000Y-61655000D01*
X215265000Y-70315000D02*
X215265000Y-67655000D01*
X216155000Y-70712071D02*
X216155000Y-70315000D01*
X216915000Y-70712071D02*
X216915000Y-70315000D01*
X216155000Y-61655000D02*
X216155000Y-67655000D01*
X216915000Y-61655000D02*
X216155000Y-61655000D01*
X216915000Y-67655000D02*
X216915000Y-61655000D01*
X217805000Y-70315000D02*
X217805000Y-67655000D01*
X218695000Y-70645000D02*
X218695000Y-70315000D01*
X219455000Y-70645000D02*
X219455000Y-70315000D01*
X218795000Y-67655000D02*
X218795000Y-61655000D01*
X218915000Y-67655000D02*
X218915000Y-61655000D01*
X219035000Y-67655000D02*
X219035000Y-61655000D01*
X219155000Y-67655000D02*
X219155000Y-61655000D01*
X219275000Y-67655000D02*
X219275000Y-61655000D01*
X219395000Y-67655000D02*
X219395000Y-61655000D01*
X218695000Y-61655000D02*
X218695000Y-67655000D01*
X219455000Y-61655000D02*
X218695000Y-61655000D01*
X219455000Y-67655000D02*
X219455000Y-61655000D01*
X220405000Y-67655000D02*
X220405000Y-70315000D01*
X210125000Y-67655000D02*
X220405000Y-67655000D01*
X210125000Y-70315000D02*
X210125000Y-67655000D01*
X220405000Y-70315000D02*
X210125000Y-70315000D01*
%TO.C,C11*%
X228205000Y-74555000D02*
X228205000Y-78940000D01*
X225185000Y-74555000D02*
X228205000Y-74555000D01*
X225185000Y-78940000D02*
X225185000Y-74555000D01*
%TO.C,C10*%
X224245000Y-76416248D02*
X224245000Y-77838752D01*
X221525000Y-76416248D02*
X221525000Y-77838752D01*
%TO.C,J7*%
D12*
X216868333Y-92797380D02*
X216868333Y-93511666D01*
X216915952Y-93654523D01*
X217011190Y-93749761D01*
X217154047Y-93797380D01*
X217249285Y-93797380D01*
X216487380Y-92797380D02*
X215820714Y-92797380D01*
X216249285Y-93797380D01*
%TO.C,R10*%
X206662857Y-71487380D02*
X206996190Y-71011190D01*
X207234285Y-71487380D02*
X207234285Y-70487380D01*
X206853333Y-70487380D01*
X206758095Y-70535000D01*
X206710476Y-70582619D01*
X206662857Y-70677857D01*
X206662857Y-70820714D01*
X206710476Y-70915952D01*
X206758095Y-70963571D01*
X206853333Y-71011190D01*
X207234285Y-71011190D01*
X205710476Y-71487380D02*
X206281904Y-71487380D01*
X205996190Y-71487380D02*
X205996190Y-70487380D01*
X206091428Y-70630238D01*
X206186666Y-70725476D01*
X206281904Y-70773095D01*
X205091428Y-70487380D02*
X204996190Y-70487380D01*
X204900952Y-70535000D01*
X204853333Y-70582619D01*
X204805714Y-70677857D01*
X204758095Y-70868333D01*
X204758095Y-71106428D01*
X204805714Y-71296904D01*
X204853333Y-71392142D01*
X204900952Y-71439761D01*
X204996190Y-71487380D01*
X205091428Y-71487380D01*
X205186666Y-71439761D01*
X205234285Y-71392142D01*
X205281904Y-71296904D01*
X205329523Y-71106428D01*
X205329523Y-70868333D01*
X205281904Y-70677857D01*
X205234285Y-70582619D01*
X205186666Y-70535000D01*
X205091428Y-70487380D01*
%TO.C,U7*%
X216661904Y-80732380D02*
X216661904Y-81541904D01*
X216614285Y-81637142D01*
X216566666Y-81684761D01*
X216471428Y-81732380D01*
X216280952Y-81732380D01*
X216185714Y-81684761D01*
X216138095Y-81637142D01*
X216090476Y-81541904D01*
X216090476Y-80732380D01*
X215709523Y-80732380D02*
X215042857Y-80732380D01*
X215471428Y-81732380D01*
%TO.C,R9*%
X206261666Y-74662380D02*
X206595000Y-74186190D01*
X206833095Y-74662380D02*
X206833095Y-73662380D01*
X206452142Y-73662380D01*
X206356904Y-73710000D01*
X206309285Y-73757619D01*
X206261666Y-73852857D01*
X206261666Y-73995714D01*
X206309285Y-74090952D01*
X206356904Y-74138571D01*
X206452142Y-74186190D01*
X206833095Y-74186190D01*
X205785476Y-74662380D02*
X205595000Y-74662380D01*
X205499761Y-74614761D01*
X205452142Y-74567142D01*
X205356904Y-74424285D01*
X205309285Y-74233809D01*
X205309285Y-73852857D01*
X205356904Y-73757619D01*
X205404523Y-73710000D01*
X205499761Y-73662380D01*
X205690238Y-73662380D01*
X205785476Y-73710000D01*
X205833095Y-73757619D01*
X205880714Y-73852857D01*
X205880714Y-74090952D01*
X205833095Y-74186190D01*
X205785476Y-74233809D01*
X205690238Y-74281428D01*
X205499761Y-74281428D01*
X205404523Y-74233809D01*
X205356904Y-74186190D01*
X205309285Y-74090952D01*
%TO.C,J1*%
X211788333Y-73747380D02*
X211788333Y-74461666D01*
X211835952Y-74604523D01*
X211931190Y-74699761D01*
X212074047Y-74747380D01*
X212169285Y-74747380D01*
X210788333Y-74747380D02*
X211359761Y-74747380D01*
X211074047Y-74747380D02*
X211074047Y-73747380D01*
X211169285Y-73890238D01*
X211264523Y-73985476D01*
X211359761Y-74033095D01*
%TO.C,C11*%
X227972857Y-81637142D02*
X228020476Y-81684761D01*
X228163333Y-81732380D01*
X228258571Y-81732380D01*
X228401428Y-81684761D01*
X228496666Y-81589523D01*
X228544285Y-81494285D01*
X228591904Y-81303809D01*
X228591904Y-81160952D01*
X228544285Y-80970476D01*
X228496666Y-80875238D01*
X228401428Y-80780000D01*
X228258571Y-80732380D01*
X228163333Y-80732380D01*
X228020476Y-80780000D01*
X227972857Y-80827619D01*
X227020476Y-81732380D02*
X227591904Y-81732380D01*
X227306190Y-81732380D02*
X227306190Y-80732380D01*
X227401428Y-80875238D01*
X227496666Y-80970476D01*
X227591904Y-81018095D01*
X226068095Y-81732380D02*
X226639523Y-81732380D01*
X226353809Y-81732380D02*
X226353809Y-80732380D01*
X226449047Y-80875238D01*
X226544285Y-80970476D01*
X226639523Y-81018095D01*
%TO.C,C10*%
X223527857Y-81637142D02*
X223575476Y-81684761D01*
X223718333Y-81732380D01*
X223813571Y-81732380D01*
X223956428Y-81684761D01*
X224051666Y-81589523D01*
X224099285Y-81494285D01*
X224146904Y-81303809D01*
X224146904Y-81160952D01*
X224099285Y-80970476D01*
X224051666Y-80875238D01*
X223956428Y-80780000D01*
X223813571Y-80732380D01*
X223718333Y-80732380D01*
X223575476Y-80780000D01*
X223527857Y-80827619D01*
X222575476Y-81732380D02*
X223146904Y-81732380D01*
X222861190Y-81732380D02*
X222861190Y-80732380D01*
X222956428Y-80875238D01*
X223051666Y-80970476D01*
X223146904Y-81018095D01*
X221956428Y-80732380D02*
X221861190Y-80732380D01*
X221765952Y-80780000D01*
X221718333Y-80827619D01*
X221670714Y-80922857D01*
X221623095Y-81113333D01*
X221623095Y-81351428D01*
X221670714Y-81541904D01*
X221718333Y-81637142D01*
X221765952Y-81684761D01*
X221861190Y-81732380D01*
X221956428Y-81732380D01*
X222051666Y-81684761D01*
X222099285Y-81637142D01*
X222146904Y-81541904D01*
X222194523Y-81351428D01*
X222194523Y-81113333D01*
X222146904Y-80922857D01*
X222099285Y-80827619D01*
X222051666Y-80780000D01*
X221956428Y-80732380D01*
%TD*%
M02*
