M48
; DRILL file {KiCad 5.1.9-1} date Tue Jul 13 14:21:07 2021
; FORMAT={-:-/ absolute / metric / decimal}
; #@! TF.CreationDate,2021-07-13T14:21:07+02:00
; #@! TF.GenerationSoftware,Kicad,Pcbnew,5.1.9-1
; #@! TF.FileFunction,Plated,1,2,PTH
FMAT,2
METRIC
T1C0.400
T2C0.500
T3C0.710
T4C1.000
T5C1.300
T6C1.400
T7C2.000
T8C3.200
%
G90
G05
T1
X101.6Y-77.47
X102.87Y-72.39
X102.885Y-82.535
X104.49Y-79.66
X106.045Y-82.55
X106.68Y-78.74
X107.95Y-80.01
X128.27Y-81.28
X128.27Y-82.55
X129.54Y-81.28
X129.54Y-82.55
X130.81Y-81.28
X130.81Y-82.55
X149.86Y-64.77
X149.86Y-66.04
X149.86Y-81.28
X149.86Y-91.44
X149.86Y-95.25
X151.13Y-64.77
X151.13Y-66.04
X151.13Y-91.44
X151.13Y-95.25
X152.4Y-64.77
X152.4Y-66.04
X152.4Y-91.44
X152.4Y-92.71
X152.4Y-93.98
X152.4Y-95.25
X152.4Y-96.52
X153.67Y-63.5
X153.67Y-64.77
X153.67Y-66.04
X153.67Y-67.31
X153.67Y-68.58
X153.67Y-91.44
X153.67Y-92.71
X153.67Y-93.98
X153.67Y-95.25
X153.67Y-96.52
X154.94Y-63.5
X154.94Y-64.77
X154.94Y-66.04
X154.94Y-67.31
X154.94Y-68.58
X154.94Y-91.44
X154.94Y-92.71
X154.94Y-93.98
X154.94Y-95.25
X154.94Y-96.52
X156.21Y-63.5
X156.21Y-64.77
X156.21Y-66.04
X156.21Y-67.31
X156.21Y-68.58
X156.21Y-91.44
X156.21Y-92.71
X156.21Y-93.98
X156.21Y-95.25
X156.21Y-96.52
X157.48Y-63.5
X157.48Y-64.77
X157.48Y-66.04
X157.48Y-67.31
X157.48Y-68.58
X157.48Y-76.2
X157.48Y-91.44
X157.48Y-92.71
X157.48Y-93.98
X157.48Y-95.25
X157.48Y-96.52
X158.75Y-63.5
X158.75Y-64.77
X158.75Y-66.04
X158.75Y-67.31
X158.75Y-68.58
X158.75Y-91.44
X158.75Y-92.71
X158.75Y-93.98
X158.75Y-95.25
X158.75Y-96.52
X160.02Y-63.5
X160.02Y-64.77
X160.02Y-66.04
X160.02Y-67.31
X160.02Y-68.58
X160.02Y-91.44
X160.02Y-92.71
X160.02Y-93.98
X160.02Y-95.25
X160.02Y-96.52
X161.29Y-63.5
X161.29Y-64.77
X161.29Y-66.04
X161.29Y-67.31
X161.29Y-68.58
X161.29Y-91.44
X161.29Y-92.71
X161.29Y-93.98
X161.29Y-95.25
X162.56Y-63.5
X162.56Y-64.77
X162.56Y-66.04
X162.56Y-67.31
X162.56Y-68.58
X162.56Y-90.17
X162.56Y-91.44
X162.56Y-92.71
X162.56Y-93.98
X163.83Y-63.5
X163.83Y-64.77
X163.83Y-66.04
X163.83Y-67.31
X163.83Y-68.58
X163.83Y-90.17
X163.83Y-91.44
X163.83Y-92.71
X165.1Y-63.5
X165.1Y-64.77
X165.1Y-66.04
X165.1Y-67.31
X165.1Y-68.58
X165.1Y-90.17
X165.1Y-91.44
X165.1Y-97.79
X166.37Y-63.5
X166.37Y-64.77
X166.37Y-66.04
X166.37Y-67.31
X166.37Y-68.58
X166.37Y-90.17
X166.37Y-96.52
X166.37Y-97.79
X167.64Y-63.5
X167.64Y-64.77
X167.64Y-66.04
X167.64Y-67.31
X167.64Y-68.58
X167.64Y-95.25
X167.64Y-96.52
X167.64Y-97.79
X168.91Y-63.5
X168.91Y-64.77
X168.91Y-66.04
X168.91Y-67.31
X168.91Y-68.58
X168.91Y-76.2
X168.91Y-81.28
X168.91Y-88.9
X168.91Y-93.98
X168.91Y-95.25
X168.91Y-96.52
X168.91Y-97.79
X170.18Y-63.5
X170.18Y-64.77
X170.18Y-66.04
X170.18Y-67.31
X170.18Y-68.58
X170.18Y-92.71
X170.18Y-93.98
X170.18Y-95.25
X170.18Y-96.52
X170.18Y-97.79
X170.815Y-77.44
X171.419Y-86.964
X171.45Y-91.44
X171.45Y-92.71
X171.45Y-93.98
X171.45Y-95.25
X171.45Y-96.52
X171.45Y-97.79
X172.085Y-78.015
X172.085Y-83.185
X172.466Y-68.326
X173.99Y-72.39
X173.99Y-87.63
X174.362Y-70.993
X175.895Y-83.185
X177.8Y-62.23
X177.8Y-63.5
X177.8Y-64.77
X179.07Y-62.23
X179.07Y-63.5
X179.82Y-83.07
X179.987Y-79.657
X180.34Y-62.23
X180.34Y-97.79
X180.695Y-93.625
X181.61Y-62.23
X182.245Y-76.2
X182.245Y-85.09
X182.88Y-62.23
X182.88Y-83.82
X184.15Y-62.23
X184.15Y-66.04
X185.42Y-62.23
X185.42Y-66.04
X186.69Y-62.23
X186.69Y-72.39
X186.69Y-99.06
X187.96Y-72.39
X187.96Y-73.66
X187.96Y-99.06
X188.595Y-65.405
X189.23Y-72.39
X189.23Y-73.66
X189.23Y-99.06
X190.5Y-66.04
X190.5Y-99.06
X191.77Y-93.98
X191.77Y-99.06
X193.04Y-85.09
X193.04Y-99.06
X194.31Y-68.58
X194.31Y-93.98
X194.31Y-99.06
X194.945Y-67.31
X195.58Y-62.23
X195.58Y-66.04
X195.58Y-68.58
X195.58Y-78.74
X195.58Y-99.06
X196.215Y-67.31
X196.85Y-62.23
X196.85Y-66.04
X196.85Y-68.58
X196.85Y-99.06
X198.12Y-62.23
X198.12Y-88.9
X198.12Y-90.17
X198.12Y-99.06
X199.39Y-62.23
X199.39Y-88.9
X199.39Y-90.17
X199.39Y-99.06
X200.66Y-62.23
X200.66Y-88.9
X200.66Y-90.17
X200.66Y-99.06
X201.93Y-62.23
X201.93Y-63.5
X201.93Y-64.77
X201.93Y-66.04
X201.93Y-67.31
X201.93Y-68.58
X201.93Y-72.39
X201.93Y-99.06
X203.2Y-81.28
X204.47Y-81.28
X205.74Y-99.06
X207.01Y-74.93
X207.01Y-77.47
X207.01Y-99.06
X208.28Y-74.295
X208.28Y-77.47
X209.55Y-72.39
X209.55Y-73.66
X210.82Y-99.06
X212.09Y-99.06
X212.725Y-73.66
X213.995Y-73.66
X214.63Y-99.06
X215.265Y-73.66
X215.9Y-99.06
X216.535Y-76.2
X216.535Y-77.47
X216.535Y-78.74
X217.17Y-68.58
X217.805Y-73.66
X218.44Y-68.58
X218.44Y-69.85
X219.075Y-73.66
X219.71Y-68.58
X219.71Y-69.85
X219.71Y-80.518
X220.98Y-80.518
X222.25Y-80.518
X223.52Y-80.518
X224.79Y-80.518
X227.33Y-93.98
X229.87Y-74.93
X231.14Y-74.93
X231.14Y-76.2
X232.41Y-74.93
X232.41Y-76.2
X232.41Y-77.47
X232.41Y-78.74
X232.41Y-80.01
X232.41Y-81.28
X233.045Y-96.52
X233.68Y-74.93
X233.68Y-76.2
X233.68Y-77.47
X233.68Y-78.74
X233.68Y-80.01
X233.68Y-81.28
X241.3Y-74.93
X241.935Y-93.98
X245.11Y-74.93
X246.38Y-73.66
X247.65Y-72.39
X254.0Y-99.06
X255.27Y-99.06
X256.54Y-81.28
X256.54Y-93.98
X256.54Y-99.06
X257.81Y-81.28
X257.81Y-93.98
X257.81Y-99.06
X259.08Y-81.28
X259.08Y-93.98
X260.35Y-81.28
X261.62Y-81.28
X262.89Y-81.28
X264.16Y-80.01
X264.16Y-81.28
X264.16Y-82.55
X265.43Y-80.01
X265.43Y-81.28
X265.43Y-82.55
T2
X82.69Y-64.77
X82.69Y-96.52
X83.393Y-63.073
X83.393Y-66.467
X83.393Y-94.823
X83.393Y-98.217
X85.09Y-62.37
X85.09Y-67.17
X85.09Y-94.12
X85.09Y-98.92
X86.787Y-63.073
X86.787Y-66.467
X86.787Y-94.823
X86.787Y-98.217
X87.49Y-64.77
X87.49Y-96.52
X261.506Y-96.52
X262.209Y-94.823
X262.209Y-98.217
X263.906Y-94.12
X263.906Y-98.92
X265.603Y-94.823
X265.603Y-98.217
X266.306Y-96.52
T3
X210.82Y-83.82
X210.82Y-91.44
X213.36Y-83.82
X213.36Y-91.44
X215.9Y-83.82
X215.9Y-91.44
X218.44Y-83.82
X218.44Y-91.44
X220.98Y-83.82
X220.98Y-91.44
X223.52Y-83.82
X223.52Y-91.44
X226.06Y-83.82
X226.06Y-91.44
X228.6Y-83.82
X228.6Y-91.44
X231.14Y-83.82
X231.14Y-91.44
X233.68Y-83.82
X233.68Y-91.44
X236.22Y-83.82
X236.22Y-91.44
X238.76Y-83.82
X238.76Y-91.44
X241.3Y-83.82
X241.3Y-91.44
X243.84Y-83.82
X243.84Y-91.44
X246.38Y-83.82
X246.38Y-91.44
X248.92Y-83.82
X248.92Y-91.44
X251.46Y-83.82
X251.46Y-91.44
X254.0Y-83.82
X254.0Y-91.44
X256.54Y-83.82
X256.54Y-91.44
X259.08Y-83.82
X259.08Y-91.44
T4
X124.46Y-72.39
X124.46Y-87.63
X127.0Y-72.39
X127.0Y-87.63
X129.54Y-72.39
X129.54Y-87.63
X132.08Y-72.39
X132.08Y-87.63
X134.62Y-72.39
X134.62Y-87.63
X137.16Y-72.39
X137.16Y-87.63
X139.7Y-72.39
X139.7Y-87.63
X142.24Y-72.39
X142.24Y-87.63
X144.78Y-72.39
X144.78Y-87.63
X149.86Y-72.39
X149.86Y-87.63
X152.4Y-72.39
X152.4Y-87.63
X154.94Y-72.39
X154.94Y-87.63
X157.48Y-72.39
X157.48Y-87.63
X160.02Y-72.39
X160.02Y-87.63
X162.56Y-72.39
X162.56Y-87.63
X165.1Y-72.39
X165.1Y-87.63
X167.64Y-72.39
X167.64Y-87.63
X170.18Y-72.39
X170.18Y-87.63
X187.96Y-63.5
X189.23Y-96.52
X190.5Y-63.5
X191.29Y-72.51
X191.29Y-87.01
X191.77Y-96.52
X193.04Y-63.5
X193.79Y-72.51
X194.31Y-96.52
X196.29Y-72.51
X196.29Y-87.01
X210.82Y-86.36
X210.82Y-88.9
X211.455Y-71.755
X213.36Y-86.36
X213.36Y-88.9
X213.995Y-71.755
X215.9Y-86.36
X215.9Y-88.9
X216.535Y-71.755
X218.44Y-86.36
X218.44Y-88.9
X219.075Y-71.755
X220.98Y-86.36
X220.98Y-88.9
X223.52Y-86.36
X223.52Y-88.9
X226.06Y-86.36
X226.06Y-88.9
X228.6Y-86.36
X228.6Y-88.9
X231.14Y-86.36
X231.14Y-88.9
X233.68Y-86.36
X233.68Y-88.9
X236.22Y-86.36
X236.22Y-88.9
X238.76Y-86.36
X238.76Y-88.9
X241.3Y-86.36
X241.3Y-88.9
X243.84Y-86.36
X243.84Y-88.9
X246.38Y-86.36
X246.38Y-88.9
X248.92Y-86.36
X248.92Y-88.9
X251.46Y-86.36
X251.46Y-88.9
X253.365Y-96.52
X254.0Y-86.36
X254.0Y-88.9
X255.905Y-96.52
X256.54Y-86.36
X256.54Y-88.9
X258.445Y-96.52
X259.08Y-86.36
X259.08Y-88.9
T5
X85.725Y-72.503
X85.725Y-77.503
X85.725Y-82.503
X85.725Y-87.503
X92.075Y-65.532
X92.188Y-94.996
X97.075Y-65.532
X97.188Y-94.996
X102.075Y-65.532
X102.188Y-94.996
X107.075Y-65.532
X107.188Y-94.996
T6
X173.99Y-95.885
X178.435Y-95.885
X184.15Y-74.295
X184.15Y-86.995
X204.47Y-95.885
X208.915Y-95.885
X213.36Y-95.885
X217.805Y-95.885
T8
X85.09Y-64.77
X85.09Y-96.52
X263.906Y-96.52
T7
G00X188.19Y-80.31
M15
G01X188.19Y-79.71
M16
G05
G00X199.39Y-80.31
M15
G01X199.39Y-79.71
M16
G05
T0
M30
