%TF.GenerationSoftware,KiCad,Pcbnew,5.1.9-1*%
%TF.CreationDate,2021-07-13T14:20:52+02:00*%
%TF.ProjectId,led-pekac,6c65642d-7065-46b6-9163-2e6b69636164,rev?*%
%TF.SameCoordinates,Original*%
%TF.FileFunction,Soldermask,Bot*%
%TF.FilePolarity,Negative*%
%FSLAX46Y46*%
G04 Gerber Fmt 4.6, Leading zero omitted, Abs format (unit mm)*
G04 Created by KiCad (PCBNEW 5.1.9-1) date 2021-07-13 14:20:52*
%MOMM*%
%LPD*%
G01*
G04 APERTURE LIST*
%ADD10C,1.550000*%
%ADD11R,1.550000X1.550000*%
%ADD12C,1.218000*%
%ADD13R,1.218000X1.218000*%
%ADD14C,6.000000*%
%ADD15O,1.700000X1.700000*%
%ADD16R,1.700000X1.700000*%
%ADD17C,0.800000*%
%ADD18C,6.400000*%
%ADD19R,1.950000X1.950000*%
%ADD20C,1.950000*%
%ADD21C,1.508000*%
%ADD22R,1.508000X1.508000*%
%ADD23C,2.800000*%
%ADD24C,1.500000*%
%ADD25R,1.500000X1.500000*%
G04 APERTURE END LIST*
%TO.C,SW1*%
G36*
G01*
X189490000Y-78710000D02*
X189490000Y-81310000D01*
G75*
G02*
X188190000Y-82610000I-1300000J0D01*
G01*
X188190000Y-82610000D01*
G75*
G02*
X186890000Y-81310000I0J1300000D01*
G01*
X186890000Y-78710000D01*
G75*
G02*
X188190000Y-77410000I1300000J0D01*
G01*
X188190000Y-77410000D01*
G75*
G02*
X189490000Y-78710000I0J-1300000D01*
G01*
G37*
G36*
G01*
X200690000Y-78710000D02*
X200690000Y-81310000D01*
G75*
G02*
X199390000Y-82610000I-1300000J0D01*
G01*
X199390000Y-82610000D01*
G75*
G02*
X198090000Y-81310000I0J1300000D01*
G01*
X198090000Y-78710000D01*
G75*
G02*
X199390000Y-77410000I1300000J0D01*
G01*
X199390000Y-77410000D01*
G75*
G02*
X200690000Y-78710000I0J-1300000D01*
G01*
G37*
D10*
X191290000Y-72510000D03*
X193790000Y-72510000D03*
D11*
X196290000Y-72510000D03*
D10*
X191290000Y-87010000D03*
X196290000Y-87010000D03*
%TD*%
D12*
%TO.C,J7*%
X251460000Y-91440000D03*
X259080000Y-91440000D03*
X254000000Y-91440000D03*
X256540000Y-91440000D03*
X254000000Y-83820000D03*
X251460000Y-83820000D03*
X256540000Y-83820000D03*
X259080000Y-83820000D03*
X213360000Y-91440000D03*
X213360000Y-83820000D03*
X210820000Y-91440000D03*
D13*
X210820000Y-83820000D03*
D12*
X218440000Y-91440000D03*
X218440000Y-83820000D03*
X215900000Y-91440000D03*
X215900000Y-83820000D03*
X223520000Y-91440000D03*
X220980000Y-91440000D03*
X223520000Y-83820000D03*
X226060000Y-83820000D03*
X220980000Y-83820000D03*
X231140000Y-91440000D03*
X228600000Y-91440000D03*
X231140000Y-83820000D03*
X233680000Y-83820000D03*
X226060000Y-91440000D03*
X228600000Y-83820000D03*
X238760000Y-91440000D03*
X236220000Y-91440000D03*
X238760000Y-83820000D03*
X241300000Y-83820000D03*
X233680000Y-91440000D03*
X236220000Y-83820000D03*
X246380000Y-91440000D03*
X243840000Y-91440000D03*
X248920000Y-91440000D03*
X246380000Y-83820000D03*
X248920000Y-83820000D03*
X241300000Y-91440000D03*
X243840000Y-83820000D03*
%TD*%
D14*
%TO.C,J4*%
X263950000Y-87630000D03*
X205950000Y-64630000D03*
X263950000Y-64630000D03*
X205950000Y-87630000D03*
D15*
X259080000Y-88900000D03*
X259080000Y-86360000D03*
X241300000Y-88900000D03*
X241300000Y-86360000D03*
X236220000Y-88900000D03*
X236220000Y-86360000D03*
X246380000Y-88900000D03*
X246380000Y-86360000D03*
X218440000Y-88900000D03*
X218440000Y-86360000D03*
X248920000Y-88900000D03*
X248920000Y-86360000D03*
X231140000Y-88900000D03*
X231140000Y-86360000D03*
X254000000Y-88900000D03*
X254000000Y-86360000D03*
X251460000Y-88900000D03*
X251460000Y-86360000D03*
X256540000Y-88900000D03*
X256540000Y-86360000D03*
X233680000Y-88900000D03*
X233680000Y-86360000D03*
X220980000Y-88900000D03*
X220980000Y-86360000D03*
X226060000Y-88900000D03*
X226060000Y-86360000D03*
X243840000Y-88900000D03*
X243840000Y-86360000D03*
X223520000Y-88900000D03*
X223520000Y-86360000D03*
X238760000Y-88900000D03*
X238760000Y-86360000D03*
D16*
X210820000Y-86360000D03*
D15*
X210820000Y-88900000D03*
X215900000Y-86360000D03*
X213360000Y-88900000D03*
X228600000Y-88900000D03*
X228600000Y-86360000D03*
X213360000Y-86360000D03*
X215900000Y-88900000D03*
%TD*%
%TO.C,R10*%
G36*
G01*
X206920000Y-69840001D02*
X206920000Y-68589999D01*
G75*
G02*
X207169999Y-68340000I249999J0D01*
G01*
X207970001Y-68340000D01*
G75*
G02*
X208220000Y-68589999I0J-249999D01*
G01*
X208220000Y-69840001D01*
G75*
G02*
X207970001Y-70090000I-249999J0D01*
G01*
X207169999Y-70090000D01*
G75*
G02*
X206920000Y-69840001I0J249999D01*
G01*
G37*
G36*
G01*
X203820000Y-69840001D02*
X203820000Y-68589999D01*
G75*
G02*
X204069999Y-68340000I249999J0D01*
G01*
X204870001Y-68340000D01*
G75*
G02*
X205120000Y-68589999I0J-249999D01*
G01*
X205120000Y-69840001D01*
G75*
G02*
X204870001Y-70090000I-249999J0D01*
G01*
X204069999Y-70090000D01*
G75*
G02*
X203820000Y-69840001I0J249999D01*
G01*
G37*
%TD*%
D17*
%TO.C,H3*%
X86787056Y-63072944D03*
X85090000Y-62370000D03*
X83392944Y-63072944D03*
X82690000Y-64770000D03*
X83392944Y-66467056D03*
X85090000Y-67170000D03*
X86787056Y-66467056D03*
X87490000Y-64770000D03*
D18*
X85090000Y-64770000D03*
%TD*%
%TO.C,H2*%
X85090000Y-96520000D03*
D17*
X87490000Y-96520000D03*
X86787056Y-98217056D03*
X85090000Y-98920000D03*
X83392944Y-98217056D03*
X82690000Y-96520000D03*
X83392944Y-94822944D03*
X85090000Y-94120000D03*
X86787056Y-94822944D03*
%TD*%
%TO.C,U7*%
G36*
G01*
X215035000Y-74780000D02*
X215035000Y-75080000D01*
G75*
G02*
X214885000Y-75230000I-150000J0D01*
G01*
X213235000Y-75230000D01*
G75*
G02*
X213085000Y-75080000I0J150000D01*
G01*
X213085000Y-74780000D01*
G75*
G02*
X213235000Y-74630000I150000J0D01*
G01*
X214885000Y-74630000D01*
G75*
G02*
X215035000Y-74780000I0J-150000D01*
G01*
G37*
G36*
G01*
X215035000Y-76050000D02*
X215035000Y-76350000D01*
G75*
G02*
X214885000Y-76500000I-150000J0D01*
G01*
X213235000Y-76500000D01*
G75*
G02*
X213085000Y-76350000I0J150000D01*
G01*
X213085000Y-76050000D01*
G75*
G02*
X213235000Y-75900000I150000J0D01*
G01*
X214885000Y-75900000D01*
G75*
G02*
X215035000Y-76050000I0J-150000D01*
G01*
G37*
G36*
G01*
X215035000Y-77320000D02*
X215035000Y-77620000D01*
G75*
G02*
X214885000Y-77770000I-150000J0D01*
G01*
X213235000Y-77770000D01*
G75*
G02*
X213085000Y-77620000I0J150000D01*
G01*
X213085000Y-77320000D01*
G75*
G02*
X213235000Y-77170000I150000J0D01*
G01*
X214885000Y-77170000D01*
G75*
G02*
X215035000Y-77320000I0J-150000D01*
G01*
G37*
G36*
G01*
X215035000Y-78590000D02*
X215035000Y-78890000D01*
G75*
G02*
X214885000Y-79040000I-150000J0D01*
G01*
X213235000Y-79040000D01*
G75*
G02*
X213085000Y-78890000I0J150000D01*
G01*
X213085000Y-78590000D01*
G75*
G02*
X213235000Y-78440000I150000J0D01*
G01*
X214885000Y-78440000D01*
G75*
G02*
X215035000Y-78590000I0J-150000D01*
G01*
G37*
G36*
G01*
X219985000Y-78590000D02*
X219985000Y-78890000D01*
G75*
G02*
X219835000Y-79040000I-150000J0D01*
G01*
X218185000Y-79040000D01*
G75*
G02*
X218035000Y-78890000I0J150000D01*
G01*
X218035000Y-78590000D01*
G75*
G02*
X218185000Y-78440000I150000J0D01*
G01*
X219835000Y-78440000D01*
G75*
G02*
X219985000Y-78590000I0J-150000D01*
G01*
G37*
G36*
G01*
X219985000Y-77320000D02*
X219985000Y-77620000D01*
G75*
G02*
X219835000Y-77770000I-150000J0D01*
G01*
X218185000Y-77770000D01*
G75*
G02*
X218035000Y-77620000I0J150000D01*
G01*
X218035000Y-77320000D01*
G75*
G02*
X218185000Y-77170000I150000J0D01*
G01*
X219835000Y-77170000D01*
G75*
G02*
X219985000Y-77320000I0J-150000D01*
G01*
G37*
G36*
G01*
X219985000Y-76050000D02*
X219985000Y-76350000D01*
G75*
G02*
X219835000Y-76500000I-150000J0D01*
G01*
X218185000Y-76500000D01*
G75*
G02*
X218035000Y-76350000I0J150000D01*
G01*
X218035000Y-76050000D01*
G75*
G02*
X218185000Y-75900000I150000J0D01*
G01*
X219835000Y-75900000D01*
G75*
G02*
X219985000Y-76050000I0J-150000D01*
G01*
G37*
G36*
G01*
X219985000Y-74780000D02*
X219985000Y-75080000D01*
G75*
G02*
X219835000Y-75230000I-150000J0D01*
G01*
X218185000Y-75230000D01*
G75*
G02*
X218035000Y-75080000I0J150000D01*
G01*
X218035000Y-74780000D01*
G75*
G02*
X218185000Y-74630000I150000J0D01*
G01*
X219835000Y-74630000D01*
G75*
G02*
X219985000Y-74780000I0J-150000D01*
G01*
G37*
%TD*%
%TO.C,R9*%
G36*
G01*
X206995000Y-73015001D02*
X206995000Y-71764999D01*
G75*
G02*
X207244999Y-71515000I249999J0D01*
G01*
X208045001Y-71515000D01*
G75*
G02*
X208295000Y-71764999I0J-249999D01*
G01*
X208295000Y-73015001D01*
G75*
G02*
X208045001Y-73265000I-249999J0D01*
G01*
X207244999Y-73265000D01*
G75*
G02*
X206995000Y-73015001I0J249999D01*
G01*
G37*
G36*
G01*
X203895000Y-73015001D02*
X203895000Y-71764999D01*
G75*
G02*
X204144999Y-71515000I249999J0D01*
G01*
X204945001Y-71515000D01*
G75*
G02*
X205195000Y-71764999I0J-249999D01*
G01*
X205195000Y-73015001D01*
G75*
G02*
X204945001Y-73265000I-249999J0D01*
G01*
X204144999Y-73265000D01*
G75*
G02*
X203895000Y-73015001I0J249999D01*
G01*
G37*
%TD*%
D15*
%TO.C,J1*%
X211455000Y-71755000D03*
X213995000Y-71755000D03*
X216535000Y-71755000D03*
D16*
X219075000Y-71755000D03*
%TD*%
%TO.C,C11*%
G36*
G01*
X225770000Y-78065000D02*
X227620000Y-78065000D01*
G75*
G02*
X227870000Y-78315000I0J-250000D01*
G01*
X227870000Y-79315000D01*
G75*
G02*
X227620000Y-79565000I-250000J0D01*
G01*
X225770000Y-79565000D01*
G75*
G02*
X225520000Y-79315000I0J250000D01*
G01*
X225520000Y-78315000D01*
G75*
G02*
X225770000Y-78065000I250000J0D01*
G01*
G37*
G36*
G01*
X225770000Y-74815000D02*
X227620000Y-74815000D01*
G75*
G02*
X227870000Y-75065000I0J-250000D01*
G01*
X227870000Y-76065000D01*
G75*
G02*
X227620000Y-76315000I-250000J0D01*
G01*
X225770000Y-76315000D01*
G75*
G02*
X225520000Y-76065000I0J250000D01*
G01*
X225520000Y-75065000D01*
G75*
G02*
X225770000Y-74815000I250000J0D01*
G01*
G37*
%TD*%
%TO.C,C10*%
G36*
G01*
X221784997Y-78027500D02*
X223985003Y-78027500D01*
G75*
G02*
X224235000Y-78277497I0J-249997D01*
G01*
X224235000Y-79102503D01*
G75*
G02*
X223985003Y-79352500I-249997J0D01*
G01*
X221784997Y-79352500D01*
G75*
G02*
X221535000Y-79102503I0J249997D01*
G01*
X221535000Y-78277497D01*
G75*
G02*
X221784997Y-78027500I249997J0D01*
G01*
G37*
G36*
G01*
X221784997Y-74902500D02*
X223985003Y-74902500D01*
G75*
G02*
X224235000Y-75152497I0J-249997D01*
G01*
X224235000Y-75977503D01*
G75*
G02*
X223985003Y-76227500I-249997J0D01*
G01*
X221784997Y-76227500D01*
G75*
G02*
X221535000Y-75977503I0J249997D01*
G01*
X221535000Y-75152497D01*
G75*
G02*
X221784997Y-74902500I249997J0D01*
G01*
G37*
%TD*%
D19*
%TO.C,J2*%
X85725000Y-87503000D03*
D20*
X85725000Y-82503000D03*
X85725000Y-77503000D03*
X85725000Y-72503000D03*
%TD*%
%TO.C,J6*%
X107075000Y-65532000D03*
X102075000Y-65532000D03*
X97075000Y-65532000D03*
D19*
X92075000Y-65532000D03*
%TD*%
D20*
%TO.C,J5*%
X92188000Y-94996000D03*
X97188000Y-94996000D03*
X102188000Y-94996000D03*
D19*
X107188000Y-94996000D03*
%TD*%
D21*
%TO.C,U2*%
X187960000Y-63500000D03*
X190500000Y-63500000D03*
D22*
X193040000Y-63500000D03*
%TD*%
D21*
%TO.C,U1*%
X194310000Y-96520000D03*
X191770000Y-96520000D03*
D22*
X189230000Y-96520000D03*
%TD*%
D23*
%TO.C,TP8*%
X184150000Y-74295000D03*
%TD*%
%TO.C,TP7*%
X184150000Y-86995000D03*
%TD*%
%TO.C,TP6*%
X208915000Y-95885000D03*
%TD*%
%TO.C,TP5*%
X204470000Y-95885000D03*
%TD*%
%TO.C,TP4*%
X178435000Y-95885000D03*
%TD*%
%TO.C,TP3*%
X173990000Y-95885000D03*
%TD*%
%TO.C,TP2*%
X213360000Y-95885000D03*
%TD*%
%TO.C,TP1*%
X217805000Y-95885000D03*
%TD*%
D16*
%TO.C,J3*%
X258445000Y-96520000D03*
D15*
X255905000Y-96520000D03*
X253365000Y-96520000D03*
%TD*%
D17*
%TO.C,H1*%
X265603056Y-94822944D03*
X263906000Y-94120000D03*
X262208944Y-94822944D03*
X261506000Y-96520000D03*
X262208944Y-98217056D03*
X263906000Y-98920000D03*
X265603056Y-98217056D03*
X266306000Y-96520000D03*
D18*
X263906000Y-96520000D03*
%TD*%
D24*
%TO.C,U4*%
X124460000Y-72390000D03*
X127000000Y-72390000D03*
X129540000Y-72390000D03*
X132080000Y-72390000D03*
X134620000Y-72390000D03*
X137160000Y-72390000D03*
X139700000Y-72390000D03*
X142240000Y-72390000D03*
X144780000Y-72390000D03*
X144780000Y-87630000D03*
X142240000Y-87630000D03*
X139700000Y-87630000D03*
X137160000Y-87630000D03*
X134620000Y-87630000D03*
X132080000Y-87630000D03*
X129540000Y-87630000D03*
X127000000Y-87630000D03*
D25*
X124460000Y-87630000D03*
%TD*%
D24*
%TO.C,U5*%
X149860000Y-72390000D03*
X152400000Y-72390000D03*
X154940000Y-72390000D03*
X157480000Y-72390000D03*
X160020000Y-72390000D03*
X162560000Y-72390000D03*
X165100000Y-72390000D03*
X167640000Y-72390000D03*
X170180000Y-72390000D03*
X170180000Y-87630000D03*
X167640000Y-87630000D03*
X165100000Y-87630000D03*
X162560000Y-87630000D03*
X160020000Y-87630000D03*
X157480000Y-87630000D03*
X154940000Y-87630000D03*
X152400000Y-87630000D03*
D25*
X149860000Y-87630000D03*
%TD*%
M02*
